<?xml version="1.0" encoding="UTF-8"?>
<svg id="Ebene_1" xmlns="http://www.w3.org/2000/svg" version="1.1" viewBox="0 0 40 40">
  <!-- Generator: Adobe Illustrator 30.2.1, SVG Export Plug-In . SVG Version: 2.1.1 Build 1)  -->
  <path d="M3.636,24.838V5.448h31.509v14.266l1.212-.2V5.448c0-.669-.543-1.212-1.212-1.212H3.636c-.669,0-1.212.543-1.212,1.212v20.602h14.603l-.2-1.212H3.636ZM15.754,29.686v-2.424H0v1.212c0,1.339,1.085,2.424,2.424,2.424h15.403l-.201-1.212h-1.871Z" style="fill: #d9304c;"/>
  <path d="M3.636,5.448v19.39h13.191l-.141-.852c-.109-.66.337-1.284.998-1.394h0s17.46-2.877,17.46-2.877V5.448H3.636ZM17.626,29.686l-.399-2.424h-1.472v2.424h1.871Z" style="fill: #ffaca6;"/>
  <path d="M38.211,20.437c-.109-.66-.733-1.107-1.394-.997l-.461.075-1.212.2-17.46,2.879c-.66.109-1.108.732-.999,1.393h0s.141.852.141.852l.2,1.212.2,1.212.4,2.424.199,1.212.635,3.85c.108.661.731,1.108,1.392,1,0,0,.001,0,.002,0l19.131-3.156c.66-.109,1.108-.732.999-1.393,0,0,0,0,0,0l-1.773-10.761ZM32.82,23.778c-.089-.063-.111-.186-.049-.275,0-.001.002-.002.003-.004l1.804-2.458c.066-.092.194-.113.286-.047l2.496,1.749c.089.063.111.186.049.275,0,.001-.002.002-.003.004l-.49.667-1.985-1.39-.825,1.125,1.143.8.511-.697.843.59-1.001,1.363c-.066.092-.194.113-.286.047l-2.498-1.749ZM21.267,34.091c-.061.084-.16.133-.264.13-.064-.001-.125-.022-.177-.059-1.687-1.232-2.059-3.596-.833-5.286.103-.141.3-.171.441-.068.141.103.171.3.068.441-1.022,1.408-.711,3.378.694,4.404.141.102.173.299.071.44,0,0,0,0,0,.001M22.014,33.076c-.061.083-.16.131-.263.128-.064-.001-.125-.022-.177-.059-1.129-.821-1.379-2.401-.558-3.53h0c.103-.141.3-.172.441-.069.141.103.171.3.068.441-.616.846-.43,2.03.416,2.646,0,0,.002.001.002.002.141.102.173.299.071.44,0,0,0,0,0,.001M22.755,32.057c-.061.083-.16.131-.263.128-.063-.002-.125-.023-.177-.059-.564-.412-.689-1.203-.279-1.769.097-.144.293-.182.437-.085.144.097.182.293.085.437-.004.006-.009.013-.014.019-.206.284-.143.681.14.887h0c.141.102.173.299.071.44,0,0-.001.002-.002.002" style="fill: #000d6e;"/>
  <path d="M35.604,25.478l1.001-1.362-.843-.59-.511.697-1.143-.8.824-1.125,1.987,1.39.488-.667c.065-.088.046-.212-.042-.276-.001,0-.002-.002-.004-.003l-2.496-1.749c-.092-.065-.22-.044-.286.047l-1.804,2.458c-.065.088-.046.212.042.276.001,0,.002.002.004.003l2.496,1.749c.093.066.221.044.287-.048M20.504,29.247c.102-.141.071-.338-.07-.441-.141-.102-.338-.071-.441.07-1.227,1.69-.854,4.055.833,5.286.052.037.113.058.177.059.174.006.319-.131.325-.305.003-.105-.046-.205-.131-.266-1.405-1.026-1.715-2.996-.693-4.404" style="fill: #ffaca6;"/>
  <path d="M21.187,31.397c-.08-.497.042-1.005.339-1.411.097-.144.059-.34-.085-.437-.137-.092-.322-.063-.424.067-.82,1.129-.571,2.708.557,3.529.051.037.112.059.176.061.174.006.319-.131.325-.305.003-.105-.046-.205-.131-.266-.408-.294-.681-.74-.757-1.237" style="fill: #ffaca6;"/>
  <path d="M22.546,30.728c.103-.141.072-.338-.068-.441-.141-.103-.338-.072-.441.068-.41.566-.286,1.357.279,1.769.052.037.113.058.177.061.174.005.319-.133.323-.307.003-.104-.046-.202-.129-.263-.284-.206-.347-.603-.142-.887,0,0,0,0,.001-.001" style="fill: #ffaca6;"/>
</svg>